<?xml version="1.0" standalone="no"?>
<!DOCTYPE svg PUBLIC "-//W3C//DTD SVG 20010904//EN" "http://www.w3.org/TR/2001/REC-SVG-20010904/DTD/svg10.dtd">
<svg version="1.0" xmlns="http://www.w3.org/2000/svg" width="60px" height="60px" viewBox="0 0 198.000000 255.000000"
    preserveAspectRatio="xMidYMid meet">

    <g transform="translate(0.000000,255.000000) scale(0.100000,-0.100000)" fill="#ffffff" stroke="none">
        <path d="M873 2536 c-117 -27 -237 -102 -303 -190 -197 -261 -138 -610 134
-788 168 -109 403 -109 572 0 276 179 333 537 126 799 -50 62 -156 134 -241
163 -82 27 -207 34 -288 16z" />
        <path d="M825 1405 c-390 -85 -705 -450 -795 -924 -26 -135 -35 -282 -20 -311
30 -57 237 -115 521 -146 217 -25 716 -24 924 0 284 33 485 90 515 147 9 15
10 49 5 113 -15 197 -58 372 -131 525 -151 320 -400 535 -694 597 -81 17 -245
17 -325 -1z" />
    </g>
</svg>